<?xml version="1.0" standalone="no"?>
<!DOCTYPE svg PUBLIC "-//W3C//DTD SVG 20010904//EN"
 "http://www.w3.org/TR/2001/REC-SVG-20010904/DTD/svg10.dtd">
<svg version="1.0" xmlns="http://www.w3.org/2000/svg"
 width="200.000000pt" height="200.000000pt" viewBox="0 0 200.000000 200.000000"
 preserveAspectRatio="xMidYMid meet">
<metadata>
Created by potrace 1.10, written by Peter Selinger 2001-2011
</metadata>
<g transform="translate(0.000000,200.000000) scale(0.050000,-0.050000)"
fill="#000000" stroke="none">
<path d="M1715 3701 c-1153 -210 -1727 -1559 -1070 -2518 909 -1326 2972 -698
2982 907 6 1009 -922 1790 -1912 1611z m642 -121 c1028 -247 1505 -1445 925
-2324 -610 -923 -1954 -923 -2564 0 -758 1149 298 2645 1639 2324z"/>
<path d="M1856 2838 l7 -444 -418 11 -419 11 9 -44 c8 -44 9 -44 417 -36 l408
9 0 -544 0 -544 -490 7 c-500 6 -508 5 -480 -67 10 -27 2156 -33 2228 -6 33
12 -14 68 -164 194 l-97 81 -90 -103 -90 -103 -299 0 -298 0 0 540 0 540 450
0 c248 0 450 8 450 17 0 31 -283 270 -297 250 -7 -11 -48 -62 -90 -114 l-78
-93 -217 0 -218 0 0 370 c0 344 3 370 36 370 157 0 113 90 -54 109 -62 7 -134
17 -162 22 l-50 10 6 -443z"/>
</g>
</svg>
