<?xml version="1.0" standalone="no"?>
<!DOCTYPE svg PUBLIC "-//W3C//DTD SVG 20010904//EN"
 "http://www.w3.org/TR/2001/REC-SVG-20010904/DTD/svg10.dtd">
<svg version="1.0" xmlns="http://www.w3.org/2000/svg"
 width="200.000000pt" height="200.000000pt" viewBox="0 0 200.000000 200.000000"
 preserveAspectRatio="xMidYMid meet">
<metadata>
Created by potrace 1.10, written by Peter Selinger 2001-2011
</metadata>
<g transform="translate(0.000000,200.000000) scale(0.050000,-0.050000)"
fill="#000000" stroke="none">
<path d="M1715 3701 c-1153 -210 -1727 -1559 -1070 -2518 909 -1326 2972 -698
2982 907 6 1009 -922 1790 -1912 1611z m642 -121 c1029 -247 1508 -1454 923
-2326 -619 -922 -1941 -922 -2560 0 -765 1141 295 2647 1637 2326z"/>
<path d="M1849 2853 c-3 -860 -196 -1313 -699 -1632 -77 -49 -143 -91 -147
-94 -5 -3 -3 -19 4 -36 28 -72 407 146 611 352 244 246 335 436 392 815 36
232 41 238 57 63 44 -474 333 -940 726 -1170 l154 -90 36 81 c25 55 56 89 97
104 93 35 73 61 -88 111 -292 90 -605 356 -741 628 l-49 99 154 101 c85 55
233 166 328 247 132 112 190 148 234 148 144 0 56 86 -221 216 -8 3 -42 -47
-77 -113 -65 -123 -271 -390 -377 -490 l-60 -58 -24 88 c-59 219 -83 385 -89
613 l-6 245 70 29 c125 52 67 89 -184 116 l-100 11 -1 -384z"/>
<path d="M1360 2722 c0 -186 -81 -329 -277 -487 -58 -46 -60 -178 -3 -235 164
-164 419 361 348 718 -16 79 -68 83 -68 4z"/>
</g>
</svg>
