<?xml version="1.0" standalone="no"?>
<!DOCTYPE svg PUBLIC "-//W3C//DTD SVG 20010904//EN"
 "http://www.w3.org/TR/2001/REC-SVG-20010904/DTD/svg10.dtd">
<svg version="1.0" xmlns="http://www.w3.org/2000/svg"
 width="200.000000pt" height="200.000000pt" viewBox="0 0 200.000000 200.000000"
 preserveAspectRatio="xMidYMid meet">
<metadata>
Created by potrace 1.10, written by Peter Selinger 2001-2011
</metadata>
<g transform="translate(0.000000,200.000000) scale(0.050000,-0.050000)"
fill="#000000" stroke="none">
<path d="M1715 3701 c-1153 -210 -1727 -1559 -1070 -2518 909 -1326 2972 -698
2982 907 6 1009 -922 1790 -1912 1611z m642 -121 c1029 -247 1508 -1454 923
-2326 -619 -922 -1941 -922 -2560 0 -765 1141 295 2647 1637 2326z"/>
<path d="M1819 3267 c-92 -243 -503 -713 -825 -946 -329 -237 -66 -164 306 85
159 106 606 539 670 649 45 75 62 81 80 24 83 -261 968 -1015 970 -826 1 46
55 115 116 146 72 37 44 63 -109 102 -271 69 -632 287 -847 510 l-130 136 67
22 c86 29 59 54 -107 102 -66 19 -131 39 -145 44 -13 5 -34 -16 -46 -48z"/>
<path d="M2195 2545 l-75 -74 -340 6 c-333 6 -340 5 -340 -35 0 -40 11 -42
220 -42 l220 0 0 -171 0 -172 -450 7 c-334 4 -450 0 -450 -17 0 -76 8 -77 460
-71 l440 6 0 -383 0 -383 -460 7 -460 7 0 -45 0 -45 1050 0 c1187 0 1127 -10
932 158 -142 124 -136 123 -229 12 l-75 -90 -284 0 -284 0 0 380 0 380 474 0
c262 0 479 8 485 18 6 10 -49 66 -123 123 l-134 106 -74 -84 -73 -83 -278 0
-277 0 0 170 0 170 215 0 c209 0 230 6 200 53 -20 30 -185 167 -202 167 -8 0
-47 -34 -88 -75z"/>
<path d="M2487 1863 c-23 -92 -140 -357 -204 -462 -131 -213 22 -120 269 163
100 115 168 176 200 180 87 11 56 45 -100 109 l-152 63 -13 -53z"/>
<path d="M1251 1881 c-7 -10 15 -61 48 -113 62 -97 110 -225 132 -352 18 -103
55 -130 118 -88 139 90 85 284 -129 462 -109 91 -154 116 -169 91z"/>
</g>
</svg>
