<?xml version="1.0" standalone="no"?>
<!DOCTYPE svg PUBLIC "-//W3C//DTD SVG 20010904//EN"
 "http://www.w3.org/TR/2001/REC-SVG-20010904/DTD/svg10.dtd">
<svg version="1.0" xmlns="http://www.w3.org/2000/svg"
 width="200.000000pt" height="200.000000pt" viewBox="0 0 200.000000 200.000000"
 preserveAspectRatio="xMidYMid meet">
<metadata>
Created by potrace 1.10, written by Peter Selinger 2001-2011
</metadata>
<g transform="translate(0.000000,200.000000) scale(0.050000,-0.050000)"
fill="#000000" stroke="none">
<path d="M1715 3701 c-1153 -210 -1727 -1559 -1070 -2518 909 -1326 2972 -698
2982 907 6 1009 -922 1790 -1912 1611z m642 -121 c1000 -240 1487 -1391 961
-2271 -659 -1104 -2332 -940 -2760 270 -406 1146 617 2284 1799 2001z"/>
<path d="M1910 2236 l0 -1006 -180 5 c-99 3 -218 11 -265 17 -67 8 -85 4 -85
-19 0 -32 22 -41 149 -63 149 -25 232 -70 245 -133 15 -79 22 -80 168 -41 204
55 195 -13 168 1364 l-10 510 50 -220 c134 -601 264 -867 573 -1175 241 -241
232 -236 287 -151 23 36 70 73 109 86 105 35 93 53 -95 145 -210 102 -343 214
-503 427 -146 194 -145 177 -16 271 58 42 176 139 263 216 118 103 173 139
218 140 103 2 82 45 -63 129 -164 96 -178 98 -195 31 -27 -109 -340 -546 -368
-515 -85 95 -274 846 -214 846 142 0 98 89 -54 109 -56 7 -120 18 -142 23 -40
10 -40 0 -40 -996z"/>
<path d="M1569 2598 l-59 -61 -295 6 c-299 7 -312 4 -285 -66 8 -21 74 -26
309 -21 l299 7 -47 -147 c-121 -383 -277 -660 -508 -901 -181 -189 -143 -215
76 -52 255 190 500 536 623 880 51 141 71 176 110 186 72 18 59 59 -47 149
-114 98 -104 97 -176 20z"/>
</g>
</svg>
