<?xml version="1.0" standalone="no"?>
<!DOCTYPE svg PUBLIC "-//W3C//DTD SVG 20010904//EN"
 "http://www.w3.org/TR/2001/REC-SVG-20010904/DTD/svg10.dtd">
<svg version="1.0" xmlns="http://www.w3.org/2000/svg"
 width="200.000000pt" height="200.000000pt" viewBox="0 0 200.000000 200.000000"
 preserveAspectRatio="xMidYMid meet">
<metadata>
Created by potrace 1.10, written by Peter Selinger 2001-2011
</metadata>
<g transform="translate(0.000000,200.000000) scale(0.050000,-0.050000)"
fill="#000000" stroke="none">
<path d="M1715 3701 c-1153 -210 -1727 -1559 -1070 -2518 909 -1326 2972 -698
2982 907 6 1009 -922 1790 -1912 1611z m642 -121 c1000 -240 1487 -1391 961
-2271 -659 -1104 -2332 -940 -2760 270 -406 1146 617 2284 1799 2001z"/>
<path d="M1895 2928 l11 -293 -483 8 c-482 8 -483 8 -483 -35 0 -42 2 -42 430
-32 319 7 430 4 430 -14 0 -169 -482 -852 -799 -1132 -231 -204 -172 -223 99
-32 310 219 587 523 739 812 l64 120 -13 -686 -13 -686 114 6 113 6 -2 630
c-2 347 -9 686 -15 755 -17 167 -4 158 70 -50 111 -310 364 -651 651 -878 189
-149 176 -146 218 -57 20 43 61 84 104 104 66 31 96 86 48 86 -286 0 -1058
731 -1058 1002 0 10 230 18 510 18 281 0 510 7 510 16 0 9 -60 69 -134 132
l-134 116 -91 -102 -91 -103 -307 1 -308 0 12 45 c7 25 13 123 13 218 l0 173
60 21 c67 23 78 55 25 71 -38 11 -264 52 -287 52 -7 0 -9 -132 -3 -292z"/>
</g>
</svg>
